<svg xmlns="http://www.w3.org/2000/svg" viewBox="0 0 110 110">
<!-- SVG created with Arrow, by QuiverAI (https://quiver.ai) -->
  <style type="text/css">.cls-0 {fill:#2C3E2B;}
.cls-1 {fill:#CBA95F;}</style>
  <path class="cls-0" d="m90 32.7c-5.4-5.3-14.3-11.4-24.5-13-2.8-0.6-5.8-1-10.5-1-4.4 0-7.2 0.4-10.4 1.1-9 1.9-16.7 6.3-22.5 11.6-8.2 7.5-15.1 19.5-16.1 30.9-0.6 4.6-0.4 5.6-0.6 25.6 0 1.7 1.4 3.3 3.1 3.3h8.6c1.8 0 3.4-1.5 3.4-3.3v-19.4c0-6.8 2.3-13.4 6.6-19.5 5-6.4 12.6-13 23.3-14.9 2.6-0.3 6-0.6 9.6-0.1 9.7 1.1 17.2 6.9 21.6 12 4.3 5.2 7.8 12.5 7.8 22v19.9c0 1.8 1.4 3.3 3.8 3.2h8.5c1.8 0 3.3-1.4 3.2-3.3l0.1-20c0-11.8-5-25.4-15-35.1z"/>
  <path class="cls-1" d="m45 77c-0.8-1.3 0-1.9 0.4-2.1 1.5-1.2 2.8-3 2.8-5.8 0-1-0.3-2.1-0.7-3.1 0.7-2.1 1.3-7.3 0.4-9.4-0.2-0.2-0.5 0-1 0.4l-4.8 4.4c-3.4-0.9-5.2-0.4-7.2 0.1l-4.5-4.1c-0.8-0.7-1.3-1.2-1.6-0.4-0.6 1.9-0.2 6.4 0.6 8.9-0.4 0.8-0.8 2.1-0.8 3.2 0 2.6 1.2 4.4 2.8 5.7s0.5 2.3-0.2 3.1c-2.3 3.3-3.7 7.5-3.7 12.4v0.8h21.8v-1.2c-0.1-4.5-1.6-9.4-4.3-12.9zm35.5-22c-2.1-1.3-3-1.6-5.6-1.6-2-0.8-3.5-1.6-7-1.6-2.8 0-4.7 0.7-6.3 1.5-1.1 0.1-2 0-3.6 0.8-1.4 0.7-2.9 1.9-3.4 2.3-2.1 1.8-2.5 3.2-1.6 7.7 0.4 1.9 0.9 3 1.2 4.3 0.4 1.2 0.5 2.1 1.4 2.1 1.3 0 3.3-2.8 3.8-5.6 0.3 2.2 1.3 4 1.3 5.6 0 3.4-2 4.1-3.6 8.1-1.5 3.8-1.5 8.8-1.1 12.5h24.4c0.7-7-0.5-11.7-3.9-16.7-2.6-4.4 0.1-6.8 0.2-9.5 0.5 2.6 2.4 5.7 3.8 5.7 1 0.1 1.1-0.9 1.5-2.2 0.4-1 2-5.8 1.8-8.5s-2.2-3.9-3.3-4.9z"/>
</svg>